<svg id="Layer_1" data-name="Layer 1" xmlns="http://www.w3.org/2000/svg" viewBox="0 0 200 200"><defs><style>.cls-1{opacity:0.05;}.cls-2{fill:red;}.cls-3{fill:#dbdbdb;}.cls-4{fill:#ccccce;}.cls-5{fill:#88888f;}.cls-6{fill:#797781;}.cls-7{fill:#bdcbc7;opacity:0.4;}.cls-8{fill:#e0e5da;}.cls-9{fill:#ed6d4a;}.cls-10{fill:#b14724;}.cls-11{fill:#88a1af;}.cls-12{fill:#495559;}.cls-13{fill:#d46456;}.cls-14{fill:#6f2917;}.cls-15{fill:#361c0a;}.cls-16{fill:#7c4627;}.cls-17{fill:#513a2b;}.cls-18{fill:#9ba09a;}.cls-19{fill:#f6e27d;}.cls-20{fill:#efc27b;}.cls-21{fill:#f8e99b;}</style></defs><title>Artboard 1</title><g id="layer1" class="cls-1"><path id="path2417" class="cls-2" d="M92.123,184.933c-4.3-4.824-15.053-14.228-23.886-20.9-26.17-19.763-29.732-22.623-40.357-32.407C8.291,113.59-.028,95.469,0,70.9.014,58.9.832,54.281,4.191,47.21c5.7-12,14.094-20.909,24.827-26.361,7.6-3.861,11.351-5.577,24.045-5.647,13.279-.073,16.075,1.475,23.886,5.766,9.508,5.223,19.294,16.386,21.317,24.316l1.249,4.9,3.081-6.745c17.411-38.117,73-37.546,92.344.947,6.137,12.211,6.811,38.285,1.369,52.973-7.1,19.159-20.431,33.766-51.252,56.149-20.213,14.679-43.089,36.889-44.681,40.009C98.527,197.136,100.287,194.082,92.123,184.933Z"/></g><rect class="cls-3" x="95.196" y="86.096" width="9.608" height="12.81"/><rect class="cls-4" x="100" y="86.096" width="4.804" height="12.81"/><path class="cls-3" d="M93.595,110.116c-23.013,0-44.836-15-44.836-25.621h9.608c0,5.31,17.527,16.013,35.229,16.013v9.608Z"/><path class="cls-4" d="M151.242,84.495c0,10.621-21.824,25.621-44.836,25.621v-9.608c17.7,0,35.229-10.7,35.229-16.013h9.608Z"/><rect class="cls-5" x="90.392" y="97.305" width="19.216" height="16.013"/><rect class="cls-6" x="100" y="97.305" width="9.608" height="16.013"/><path id="_Compound_Path_" data-name="&lt;Compound Path&gt;" class="cls-7" d="M139.865,90.275a3.05,3.05,0,0,1-2.9,3.185v81.208c0,4.4-3.24,7.962-7.238,7.962s-7.238-3.564-7.238-7.962V93.46a3.2,3.2,0,0,1,0-6.369h14.476A3.05,3.05,0,0,1,139.865,90.275Zm-33.294-3.185H92.1a3.2,3.2,0,0,0,0,6.369v81.208c0,4.4,3.24,7.962,7.238,7.962s7.238-3.564,7.238-7.962V93.46a3.2,3.2,0,0,0,0-6.369Zm-30.4,0H61.7a3.2,3.2,0,0,0,0,6.369v81.208c0,4.4,3.24,7.962,7.238,7.962s7.238-3.564,7.238-7.962V93.46a3.2,3.2,0,0,0,0-6.369Z"/><path id="_Compound_Path_2" data-name="&lt;Compound Path&gt;" class="cls-8" d="M129.732,179.734h0a4.343,4.343,0,0,1-4.343-4.343V133.412h8.685v41.979A4.343,4.343,0,0,1,129.732,179.734Zm-26.056-4.343V133.412H94.99v41.979a4.343,4.343,0,0,0,4.343,4.343h0A4.343,4.343,0,0,0,103.676,175.392Zm-30.4,0V133.412H64.592v41.979a4.343,4.343,0,0,0,4.343,4.343h0A4.343,4.343,0,0,0,73.277,175.392Z"/><path id="_Path_" data-name="&lt;Path&gt;" class="cls-9" d="M129.732,179.734h0a4.606,4.606,0,0,1-4.343-4.83V141.091h8.685V174.9A4.606,4.606,0,0,1,129.732,179.734Z"/><path id="_Path_2" data-name="&lt;Path&gt;" class="cls-10" d="M129.732,179.734h0c-2.4,0-4.343-2.348-4.343-5.244V144.773h8.685V174.49C134.074,177.386,132.13,179.734,129.732,179.734Z"/><path id="_Path_3" data-name="&lt;Path&gt;" class="cls-11" d="M99.333,179.734h0a4.343,4.343,0,0,1-4.343-4.343v-30.4h8.685v30.4A4.343,4.343,0,0,1,99.333,179.734Z"/><path id="_Path_4" data-name="&lt;Path&gt;" class="cls-12" d="M99.333,179.734h0a4.566,4.566,0,0,1-4.343-4.76V148h8.685v26.974A4.566,4.566,0,0,1,99.333,179.734Z"/><path id="_Path_5" data-name="&lt;Path&gt;" class="cls-13" d="M68.934,179.734h0c-2.4,0-4.343-1.545-4.343-3.45V152.136h8.685v24.148C73.277,178.19,71.333,179.734,68.934,179.734Z"/><path id="_Path_6" data-name="&lt;Path&gt;" class="cls-14" d="M68.934,179.734h0c-2.4,0-4.343-1.606-4.343-3.587V155.818h8.685v20.329C73.277,178.128,71.333,179.734,68.934,179.734Z"/><path id="_Compound_Path_3" data-name="&lt;Compound Path&gt;" class="cls-15" d="M160.13,188.42h-2.9V139.2h2.9a5.79,5.79,0,1,0,0-11.58H38.536a5.79,5.79,0,0,0,0,11.58h2.9V188.42h-2.9a5.79,5.79,0,0,0-5.79,5.79h0a5.79,5.79,0,0,0,5.79,5.79H160.13a5.79,5.79,0,0,0,5.79-5.79h0A5.79,5.79,0,0,0,160.13,188.42Zm-107.119,0V139.2h92.644V188.42Z"/><path id="_Compound_Path_4" data-name="&lt;Compound Path&gt;" class="cls-16" d="M38.536,188.42H160.13a5.79,5.79,0,0,1,5.79,5.79H32.745A5.79,5.79,0,0,1,38.536,188.42Zm2.9-5.79h0V139.2h5.79v37.636A5.79,5.79,0,0,1,41.431,182.629Zm110.014-5.79V139.2h-5.79v43.427h0A5.79,5.79,0,0,0,151.445,176.839ZM38.536,127.622H160.13a5.79,5.79,0,0,1,5.79,5.79H32.745A5.79,5.79,0,0,1,38.536,127.622Z"/><path id="_Compound_Path_5" data-name="&lt;Compound Path&gt;" class="cls-17" d="M76.172,130.517H61.7a2.9,2.9,0,0,1-2.9-2.9H79.067A2.9,2.9,0,0,1,76.172,130.517Zm33.294-2.9H89.2a2.9,2.9,0,0,0,2.9,2.9h14.476A2.9,2.9,0,0,0,109.466,127.622Zm30.4,0H119.6a2.9,2.9,0,0,0,2.9,2.9h14.476A2.9,2.9,0,0,0,139.865,127.622Z"/><path id="_Compound_Path_6" data-name="&lt;Compound Path&gt;" class="cls-8" d="M73.277,130.517H64.592V92.881h8.685Zm1.448-43.427H63.144A1.448,1.448,0,0,0,61.7,88.538h0a1.448,1.448,0,0,0,1.448,1.448h11.58a1.448,1.448,0,0,0,1.448-1.448h0A1.448,1.448,0,0,0,74.725,87.091Zm28.951,5.79H94.99v37.636h8.685Zm1.448-5.79H93.543A1.448,1.448,0,0,0,92.1,88.538h0a1.448,1.448,0,0,0,1.448,1.448h11.58a1.448,1.448,0,0,0,1.448-1.448h0A1.448,1.448,0,0,0,105.123,87.091Zm28.951,5.79h-8.685v37.636h8.685Zm1.448-5.79h-11.58a1.448,1.448,0,0,0-1.448,1.448h0a1.448,1.448,0,0,0,1.448,1.448h11.58a1.448,1.448,0,0,0,1.448-1.448h0A1.448,1.448,0,0,0,135.522,87.091Z"/><path id="_Compound_Path_7" data-name="&lt;Compound Path&gt;" class="cls-18" d="M73.277,130.517H64.592v-2.9h8.685Zm30.4-2.9H94.99v2.9h8.685Zm30.4,0h-8.685v2.9h8.685Z"/><path class="cls-19" d="M100,6.405A60.849,60.849,0,0,0,39.151,67.255v9.608h121.7V67.255A60.849,60.849,0,0,0,100,6.405Z"/><path class="cls-20" d="M160.849,67.255A60.849,60.849,0,0,0,100,6.405V76.862h60.849Z"/><path class="cls-21" d="M87.19,0V48.039c0,3.538,5.736,6.405,12.81,6.405s12.81-2.868,12.81-6.405V0Z"/><path class="cls-21" d="M64.771,56.846a2.4,2.4,0,0,1-2.4-2.4V16.013a2.4,2.4,0,0,1,4.8,0V54.444A2.4,2.4,0,0,1,64.771,56.846Z"/><path class="cls-19" d="M135.229,56.846a2.4,2.4,0,0,1-2.4-2.4V16.013a2.4,2.4,0,0,1,4.8,0V54.444A2.4,2.4,0,0,1,135.229,56.846Z"/><path class="cls-21" d="M160.849,86.47a6.405,6.405,0,0,0,0-12.81c-28.823,0-32.026-6.405-60.849-6.405S67.974,73.66,39.151,73.66a6.405,6.405,0,0,0,0,12.81Z"/><path class="cls-19" d="M100,0V54.444c7.075,0,12.81-2.868,12.81-6.405V0Z"/><path class="cls-19" d="M160.849,73.66c-28.823,0-32.026-6.405-60.849-6.405V86.47h60.849a6.405,6.405,0,1,0,0-12.81Z"/></svg>